<?xml version="1.0" encoding="UTF-8" standalone="no"?>
<!-- Created with Inkscape (http://www.inkscape.org/) -->

<svg
   width="135mm"
   height="135mm"
   viewBox="0 0 135 135"
   version="1.1"
   id="svg1"
   xmlns="http://www.w3.org/2000/svg"
   xmlns:svg="http://www.w3.org/2000/svg">
  <defs
     id="defs1">
    <filter
       style="color-interpolation-filters:sRGB"
       id="filter20"
       x="-0.23850067"
       y="-0.26444366"
       width="1.4770013"
       height="1.5288873">
      <feFlood
         result="flood"
         flood-opacity="0.10000000000000001"
         flood-color="rgb(0,0,0)"
         id="feFlood19" />
      <feGaussianBlur
         result="blur"
         in="SourceGraphic"
         stdDeviation="6"
         id="feGaussianBlur19" />
      <feOffset
         result="offset"
         in="blur"
         dx="0.000000"
         dy="0.000000"
         id="feOffset19" />
      <feComposite
         result="comp1"
         operator="in"
         in="flood"
         in2="offset"
         id="feComposite19" />
      <feComposite
         result="comp2"
         operator="over"
         in="SourceGraphic"
         in2="comp1"
         id="feComposite20" />
    </filter>
  </defs>
  <g
     id="layer1"
     transform="translate(-282.92158,44.288)">
    <g
       id="g1"
       transform="matrix(0.9937528,0,0,0.9937528,2.0015351,-3.1076097)"
       style="filter:url(#filter20)">
      <path
         style="fill:#ffffff;stroke-linejoin:round"
         d="m 331.85547,19.568359 c -2.63201,-1e-6 -5.03945,1.52362 -6.16602,3.902344 l -2.28125,4.814453 c -1.05778,2.233483 -1.60547,4.673226 -1.60547,7.144531 v 2.388672 c 0,0.938296 -0.29569,1.851684 -0.84375,2.613282 l -0.0918,0.128906 c -1.16895,1.624399 0.112,4.124998 2.11328,4.125 h 55.25976 c 2.00131,-6e-6 3.2824,-2.500687 2.11329,-4.125 l -0.0918,-0.128906 c -0.54809,-0.761487 -0.84375,-1.675059 -0.84375,-2.613282 v -2.388672 c 0,-2.471289 -0.54776,-4.911033 -1.60547,-7.144531 l -2.2793,-4.814453 c -1.1265,-2.378765 -3.53399,-3.902345 -6.16601,-3.902344 z m 0,4 h 37.51172 c 1.09538,0 2.08195,0.625251 2.55078,1.615235 l 2.2793,4.8125 c 0.80432,1.698431 1.2207,3.554337 1.2207,5.433593 v 2.388672 c 0,0.98867 0.21257,1.948366 0.54492,2.867188 h -50.70312 c 0.33229,-0.918816 0.54296,-1.878547 0.54296,-2.867188 v -2.388672 c 0,-1.879233 0.41635,-3.735205 1.22071,-5.433593 l 2.28125,-4.8125 c 0.46886,-0.989998 1.45537,-1.615235 2.55078,-1.615235 z"
         id="rect3"
         transform="translate(0,-9.7010854)" />
      <path
         style="fill:#ffffff;stroke-linecap:round;stroke-linejoin:round"
         d="m 342.99805,15.791016 c -2.24262,1.8e-5 -4.08789,1.845277 -4.08789,4.08789 a 1.250125,1.250125 0 0 0 0,0.002 c 0.002,0.976826 0.44125,1.822192 1.04882,2.544922 -0.60753,0.722705 -1.04728,1.567944 -1.04882,2.544922 a 1.250125,1.250125 0 0 0 0,0.002 c 0,2.242613 1.84527,4.087872 4.08789,4.087891 1.8007,-8e-6 3.29336,-1.208189 3.83203,-2.837891 h 7.56054 c 0.53868,1.629777 2.03126,2.837952 3.83204,2.837891 2.24261,-1.9e-5 4.08789,-1.845278 4.08789,-4.087891 -1.7e-4,-0.978784 -0.44025,-1.82469 -1.04883,-2.548828 0.60736,-0.722539 1.04711,-1.566344 1.04883,-2.542969 a 1.250125,1.250125 0 0 0 0,-0.002 c 0,-2.242613 -1.84528,-4.087872 -4.08789,-4.08789 -1.80078,-6.1e-5 -3.29336,1.208113 -3.83204,2.83789 h -7.56054 c -0.53867,-1.629702 -2.03133,-2.837882 -3.83203,-2.83789 z m 0,2.5 c 0.89152,4e-6 1.58789,0.696367 1.58789,1.58789 a 1.250125,1.250125 0 0 0 1.25,1.25 h 9.55078 a 1.250125,1.250125 0 0 0 1.25,-1.25 c 0,-0.891547 0.69439,-1.587921 1.58594,-1.58789 0.89086,7e-6 1.58685,0.695366 1.58789,1.585937 -10e-4,0.608502 -0.34378,1.156935 -0.89063,1.423828 a 1.250125,1.250125 0 0 0 0,2.246094 c 0.54768,0.267298 0.89052,0.816361 0.89063,1.425781 0,0.891522 -0.69637,1.587883 -1.58789,1.587891 -0.89155,3e-5 -1.58594,-0.696344 -1.58594,-1.587891 a 1.250125,1.250125 0 0 0 -1.25,-1.25 h -9.55078 a 1.250125,1.250125 0 0 0 -1.25,1.25 c 0,0.891522 -0.69637,1.587887 -1.58789,1.587891 -0.89153,-8e-6 -1.58789,-0.696369 -1.58789,-1.587891 0.002,-0.608705 0.34507,-1.157557 0.89257,-1.423828 a 1.250125,1.250125 0 0 0 0,-2.248047 c -0.54742,-0.266228 -0.89078,-0.812743 -0.89257,-1.421875 v -0.002 c 10e-4,-0.890571 0.69702,-1.58593 1.58789,-1.585937 z"
         id="rect4" />
      <path
         style="-inkscape-font-specification:'Lilita One';fill:#ffffff;stroke-width:2;stroke-linejoin:round"
         d="m 328.05653,37.670631 q 0.32385,0 0.32385,1.69545 0,1.6764 -0.32385,1.6764 h -3.48615 v 2.1717 h 2.3241 q 0.32385,0 0.32385,1.4859 0,1.46685 -0.3048,1.46685 h -2.34315 v 4.59105 q 0,0.266699 -0.7239,0.342899 -0.70485,0.09525 -1.1811,0.09525 l -0.89535,-0.0381 q -0.93345,-0.1143 -0.93345,-0.380999 v -12.6111 q 0,-0.3048 0.1143,-0.40005 0.13335,-0.09525 0.381,-0.09525 z m 8.05815,5.2959 q 0.36195,0 0.36195,1.3335 0,0.40005 -0.0953,0.9525 -0.0762,0.5334 -0.3048,0.5334 h -2.41935 v 1.905 h 3.5052 q 0.32385,0 0.43815,0.8382 0.0572,0.36195 0.0572,0.78105 0,0.40005 -0.1143,1.04775 -0.1143,0.647699 -0.381,0.647699 h -6.5151 q -0.7239,0 -0.7239,-0.590549 v -12.24915 q 0,-0.4953 0.43815,-0.4953 h 6.8199 q 0.40005,0 0.40005,1.69545 0,1.6764 -0.40005,1.6764 h -3.52425 v 1.92405 z m 3.2004,7.1628 v -11.43 q 0,-0.47625 0.2286,-0.74295 0.24765,-0.28575 0.62865,-0.28575 h 3.18135 q 3.02895,0 4.59105,1.524 1.58115,1.524 1.58115,4.8006 0,7.010399 -5.9817,7.010399 h -3.25755 q -0.97155,0 -0.97155,-0.876299 z m 3.6576,-8.8392 v 5.69595 q 0,0.40005 0.0571,0.51435 0.0571,0.09525 0.3429,0.09525 1.04775,0 1.58115,-0.78105 0.55245,-0.78105 0.55245,-2.5908 0,-1.8288 -0.5715,-2.38125 -0.55245,-0.55245 -1.77165,-0.55245 z m 9.73454,9.753599 q -1.73355,0 -1.73355,-0.380999 v -12.3444 q 0,-0.6477 0.59055,-0.6477 h 3.3528 q 2.8194,0 4.05765,1.16205 1.2573,1.16205 1.2573,3.37185 0,1.8288 -1.1811,3.3528 -0.59055,0.762 -1.73355,1.2192 -1.143,0.4572 -2.667,0.4572 v 3.40995 q 0,0.228599 -0.7239,0.323849 -0.70485,0.0762 -1.2192,0.0762 z m 1.9431,-10.058399 v 3.0099 h 0.24765 q 0.66675,0 1.12395,-0.4191 0.4572,-0.4191 0.4572,-1.1811 0,-0.762 -0.32385,-1.08585 -0.3048,-0.32385 -1.1049,-0.32385 z m 13.44929,1.9812 q 0.36195,0 0.36195,1.3335 0,0.40005 -0.0953,0.9525 -0.0762,0.5334 -0.3048,0.5334 h -2.41935 v 1.905 h 3.5052 q 0.32385,0 0.43815,0.8382 0.0571,0.36195 0.0571,0.78105 0,0.40005 -0.1143,1.04775 -0.1143,0.647699 -0.381,0.647699 h -6.5151 q -0.7239,0 -0.7239,-0.590549 v -12.24915 q 0,-0.4953 0.43815,-0.4953 h 6.8199 q 0.40005,0 0.40005,1.69545 0,1.6764 -0.40005,1.6764 h -3.52425 v 1.92405 z m 8.93445,7.7343 q 0,0.380999 -1.88595,0.380999 -1.88595,0 -1.88595,-0.380999 v -9.5631 h -2.286 q -0.32385,0 -0.4572,-0.8763 -0.0571,-0.4191 -0.0571,-0.85725 0,-0.43815 0.0571,-0.85725 0.13335,-0.8763 0.4572,-0.8763 h 8.28675 q 0.32385,0 0.4572,0.8763 0.0572,0.4191 0.0572,0.85725 0,0.43815 -0.0572,0.85725 -0.13335,0.8763 -0.4572,0.8763 h -2.22885 z"
         id="text10"
         aria-label="FEDPET" />
      <path
         style="fill:#ffffff;stroke-linecap:round;stroke-linejoin:round"
         d="m 350.60742,-3.2578125 c -3.89216,0.00778 -7.488,1.5153042 -9.80273,4.15625 -0.06,-9.9746e-4 -0.11962,-0.00969 -0.17969,-0.009766 a 2.0002,2.0002 0 0 0 -0.006,0 c -3.67869,0.005177 -7.12826,1.6576438 -8.6875,4.6992187 a 2,2 0 0 0 0.86719,2.6914063 2,2 0 0 0 2.6914,-0.8671875 c 0.66971,-1.3063833 2.70139,-2.519324 5.13282,-2.5234375 0.26333,4.653e-4 0.52697,0.015774 0.78711,0.042969 a 2.0002,2.0002 0 0 0 1.86523,-0.8710937 c 1.26386,-1.8710662 4.11577,-3.31014732 7.33398,-3.31835938 3.22827,7.2397e-4 6.09399,1.44359898 7.36133,3.32031248 a 2.0002,2.0002 0 0 0 1.86719,0.8691406 c 0.25113,-0.026482 0.50374,-0.041408 0.75781,-0.042969 7e-4,9e-7 0.001,-1.2e-6 0.002,0 2.43152,0.00395 4.46304,1.216951 5.13281,2.5234375 a 2,2 0 0 0 2.69336,0.8671875 2,2 0 0 0 0.86719,-2.6914063 c -1.55935,-3.0417457 -5.01051,-4.6942957 -8.68946,-4.6992187 a 2.0002,2.0002 0 0 0 -0.0117,0 c -0.0503,2.3209e-4 -0.10014,0.006934 -0.15039,0.007813 -2.32042,-2.646311 -5.92709,-4.1534221 -9.82812,-4.1542969 a 2.0002,2.0002 0 0 0 -0.004,0 z"
         id="path4" />
    </g>
    <rect
       style="fill:none;stroke:none;stroke-width:9.95559;stroke-linecap:round;stroke-linejoin:round"
       id="rect5"
       width="135"
       height="135"
       x="282.92157"
       y="-44.287991" />
  </g>
</svg>
